<svg
      viewBox="0 0 90 120"
       xmlns="http://www.w3.org/2000/svg"
    >
      <rect width="90" height="120" fill="rgba(255, 255, 255, 0.05)" />
      <g transform="translate(13, 31)">
        <path fill-rule="evenodd" clip-rule="evenodd" d="M18.1928 9.1526C8.14519 11.8448 2.1825 22.1725 4.87474 32.2201L8.12937 44.3666C10.7252 54.0544 23.0929 56.9046 29.667 49.3301C32.9375 45.5618 38.134 44.0966 42.8913 45.6014L43.3981 45.7617C53.4297 48.9347 63.0081 39.7738 60.2849 29.6109L59.4639 26.5466L57.2255 18.1928C54.5332 8.1452 44.2055 2.18251 34.1579 4.87476L18.1928 9.1526ZM45.8748 16.5201C46.1178 16.0992 45.9736 15.5611 45.5527 15.318C45.1318 15.075 44.5936 15.2192 44.3506 15.6401L42.5769 18.7123L39.5048 16.9386C39.0839 16.6956 38.5457 16.8398 38.3027 17.2607C38.0597 17.6816 38.2039 18.2198 38.6248 18.4628L41.6969 20.2365L39.9231 23.3088C39.6801 23.7297 39.8243 24.2679 40.2452 24.5109C40.6661 24.754 41.2043 24.6097 41.4473 24.1888L43.2211 21.1165L46.2935 22.8904C46.7144 23.1334 47.2526 22.9891 47.4956 22.5683C47.7386 22.1474 47.5944 21.6092 47.1735 21.3661L44.1011 19.5923L45.8748 16.5201ZM20.2607 22.0952C20.6816 22.3382 20.8258 22.8764 20.5828 23.2973L18.8094 26.3689L21.8824 28.1432C22.3033 28.3862 22.4475 28.9244 22.2045 29.3453C21.9615 29.7662 21.4233 29.9104 21.0024 29.6674L17.9294 27.8931L16.1552 30.966C15.9122 31.3869 15.374 31.5311 14.9531 31.2881C14.5322 31.0451 14.388 30.5069 14.631 30.086L16.4052 27.0131L13.3337 25.2398C12.9128 24.9968 12.7686 24.4586 13.0116 24.0377C13.2546 23.6168 13.7928 23.4726 14.2137 23.7156L17.2852 25.4889L19.0586 22.4173C19.3016 21.9964 19.8398 21.8522 20.2607 22.0952ZM36.6332 32.8174C36.1637 32.9432 35.6812 32.6646 35.5554 32.1951C35.193 30.8426 33.8028 30.04 32.4502 30.4024C31.0977 30.7648 30.2951 32.155 30.6575 33.5075C30.7833 33.977 30.5047 34.4595 30.0352 34.5853C29.5658 34.7111 29.0832 34.4325 28.9575 33.9631C28.3435 31.6716 29.7033 29.3163 31.9947 28.7024C34.2861 28.0884 36.6414 29.4482 37.2554 31.7396C37.3812 32.2091 37.1026 32.6916 36.6332 32.8174Z" fill="#44484b" fill-opacity="1"/>
      </g>
    </svg>